# xmcd CD database file generated by OrangeCD 6.5
#
# Track frame offsets:
#	150
#	14337
#	28567
#	41242
#	55905
#	69470
#	83077
#	96795
#	107632
#	121812
#	134942
#	148315
#	160567
#	175102
#	188790
#	202397
#
# Disc length: 2861 seconds
#
# Revision: 2
# Processed by: cddbd v1.5.2PL0 Copyright (c) Steve Scherf et al.
# Submitted via: OrangeCD 6.5
#
DISCID=e70b2b10
DTITLE=The Carter Family - Country Music Hall Of Fame Series
DYEAR=1991
DGENRE=Country
TTITLE0=You Are My Flower
TTITLE1=Hold Fast To The Right
TTITLE2=Hello Stranger
TTITLE3=In The Shadow Of Clinch Mountain
TTITLE4=Coal Miner's Blues
TTITLE5=Lover's Lane
TTITLE6=Bonnie Blue Eyes
TTITLE7=You're Nothing More To Me
TTITLE8=Answer To Weeping Willow
TTITLE9=Charlie And Nellie
TTITLE10=My Dixie Darling
TTITLE11=Oh Take Me Back
TTITLE12=Dark Haired True Lover
TTITLE13=Just A Few More Days
TTITLE14=Young Freda Bolt
TTITLE15=You Denied Your Love
EXTD=
EXTT0=
EXTT1=
EXTT2=
EXTT3=
EXTT4=
EXTT5=
EXTT6=
EXTT7=
EXTT8=
EXTT9=
EXTT10=
EXTT11=
EXTT12=
EXTT13=
EXTT14=
EXTT15=
PLAYORDER=
